<svg width="14" height="14" viewBox="0 0 14 14" fill="none" xmlns="http://www.w3.org/2000/svg">
    <path fill-rule="evenodd" clip-rule="evenodd"
        d="M6.97701 7.41354C9.04598 7.41354 10.7241 5.75091 10.7241 3.70108C10.7241 1.65125 9.04598 0 6.97701 0C4.90805 0 3.22989 1.66264 3.22989 3.70108C3.22989 5.73952 4.90805 7.41354 6.97701 7.41354ZM6.97701 0.967974C8.49425 0.967974 9.73563 2.19787 9.73563 3.70108C9.73563 5.20428 8.49425 6.43418 6.97701 6.43418C5.45977 6.43418 4.21839 5.20428 4.21839 3.70108C4.21839 2.19787 5.45977 0.967974 6.97701 0.967974ZM0.494253 13.21H13.5057C13.7816 13.21 14 12.9936 14 12.7203C14 10.158 11.8966 8.06266 9.29885 8.06266H4.70115C2.11494 8.06266 0 10.1466 0 12.7203C0 12.9936 0.218391 13.21 0.494253 13.21ZM4.70115 9.04202H9.29885C11.1839 9.04202 12.7356 10.4313 12.977 12.2306H1.02299C1.26437 10.4427 2.81609 9.04202 4.70115 9.04202Z"
        fill="#9294A3" />
</svg>
