<svg width="13" height="16" viewBox="0 0 13 16" fill="none" xmlns="http://www.w3.org/2000/svg">
<path opacity="0.5" fill-rule="evenodd" clip-rule="evenodd" d="M9.28523 0H3.23875C2.95551 0 2.73385 0.228571 2.73385 0.520635V1.24444H0.5049C0.221663 1.24444 0 1.47302 0 1.76508V15.4794C0 15.7714 0.221663 16 0.5049 16H11.7851C12.0683 16 12.29 15.7714 12.29 15.4794V1.76508C12.29 1.47302 12.0683 1.24444 11.7851 1.24444H9.79013V0.520635C9.79013 0.228571 9.56847 0 9.28523 0ZM3.74365 1.76508V1.04127H8.78033V1.76508V2.67937H3.74365V1.76508ZM11.2802 2.28571V14.9587H1.0098V2.28571H2.73385V3.2C2.73385 3.49206 2.95551 3.72063 3.23875 3.72063H9.28523C9.56847 3.72063 9.79013 3.49206 9.79013 3.2V2.28571H11.2802ZM9.90096 9.01587H2.62302C2.33978 9.01587 2.11812 9.24444 2.11812 9.53651C2.11812 9.82857 2.33978 10.0571 2.62302 10.0571H9.90096C10.1842 10.0571 10.4059 9.82857 10.4059 9.53651C10.4059 9.24444 10.1842 9.01587 9.90096 9.01587ZM6.26815 11.5302H2.62302C2.33978 11.5302 2.11812 11.7587 2.11812 12.0508C2.11812 12.3429 2.33978 12.5714 2.62302 12.5714H6.25583C6.53907 12.5714 6.76073 12.3429 6.76073 12.0508C6.76073 11.7587 6.53907 11.5302 6.26815 11.5302ZM2.11812 7.00952C2.11812 7.30159 2.33978 7.53016 2.62302 7.53016H9.90096C10.1842 7.53016 10.4059 7.30159 10.4059 7.00952C10.4059 6.71746 10.1842 6.48889 9.90096 6.48889H2.62302C2.33978 6.48889 2.11812 6.73016 2.11812 7.00952Z" fill="white"/>
</svg>
