<svg width="14" height="14" viewBox="0 0 14 14" fill="none" xmlns="http://www.w3.org/2000/svg">
<path fill-rule="evenodd" clip-rule="evenodd" d="M0.494828 3.53316H1.27931V9.27304C1.27931 9.55039 1.49655 9.76744 1.77414 9.76744H3.58448L1.35172 13.2403C1.2069 13.4694 1.26724 13.7709 1.49655 13.9156C1.58103 13.9638 1.66552 13.9879 1.76207 13.9879C1.91897 13.9879 2.08793 13.9035 2.17241 13.7588L4.7431 9.75538H9.23276L11.8034 13.7709C11.9 13.9156 12.0569 14 12.2138 14C12.3103 14 12.3948 13.9759 12.4793 13.9276C12.7086 13.7829 12.781 13.4815 12.6241 13.2524L10.4034 9.76744H12.2259C12.5034 9.76744 12.7207 9.55039 12.7207 9.27304V3.53316H13.5052C13.7828 3.53316 14 3.31611 14 3.03876V0.494401C14 0.217054 13.7828 0 13.5052 0H0.494828C0.217241 0 0 0.217054 0 0.494401V3.03876C0 3.31611 0.217241 3.53316 0.494828 3.53316ZM11.731 8.7907H9.6431C9.53448 8.75452 9.42586 8.75452 9.31724 8.7907H4.51379C4.50172 8.7907 4.48966 8.7907 4.46552 8.7907H2.26897V3.53316H11.7431V8.7907H11.731ZM0.965517 0.988803H12.9983V2.54436H12.2138H1.76207H0.977586V0.988803H0.965517ZM3.72931 7.82601C3.85 7.82601 3.98276 7.77778 4.07931 7.68131L4.86379 6.8975L6.48103 7.31955C6.66207 7.36779 6.85517 7.30749 6.98793 7.16279L8.62931 5.2093C8.81034 5.00431 8.77414 4.69078 8.56897 4.5099C8.36379 4.32903 8.05 4.3652 7.86897 4.5702L6.42069 6.28252L4.82759 5.87252C4.65862 5.82429 4.47759 5.87252 4.3569 6.00517L3.36724 6.99397C3.17414 7.18691 3.17414 7.50043 3.36724 7.69337C3.47586 7.77778 3.59655 7.82601 3.72931 7.82601Z" fill="#9294A3"/>
</svg>
