<svg width="15" height="15" viewBox="0 0 15 15" fill="none" xmlns="http://www.w3.org/2000/svg">
<path id="settings copy" fill-rule="evenodd" clip-rule="evenodd" d="M0.52926 5.94828C0.232358 5.94828 0 6.18103 0 6.47845V8.54741C0 8.84483 0.232358 9.07759 0.52926 9.07759H1.49742C1.63941 9.63362 1.85886 10.1638 2.15577 10.6552L1.48451 11.3276C1.27797 11.5345 1.27797 11.8707 1.48451 12.0776L2.9432 13.5388C3.14974 13.7457 3.48537 13.7457 3.69191 13.5388L4.37608 12.8534C4.86661 13.1379 5.39587 13.3578 5.95095 13.5V14.4698C5.95095 14.7672 6.1833 15 6.48021 15H8.54561C8.84251 15 9.07487 14.7672 9.07487 14.4698V13.4871C9.62995 13.3448 10.1463 13.125 10.6368 12.8405L11.3339 13.5388C11.5404 13.7457 11.8761 13.7457 12.0826 13.5388L13.5413 12.0776C13.7478 11.8707 13.7478 11.5345 13.5413 11.3276L12.8442 10.6293C13.1282 10.1379 13.3477 9.62069 13.4897 9.06466H14.4707C14.7676 9.06466 15 8.8319 15 8.53448V6.46552C15 6.1681 14.7676 5.93534 14.4707 5.93534H13.4897C13.3477 5.37931 13.1282 4.86207 12.8442 4.37069L13.5413 3.67241C13.7478 3.46552 13.7478 3.12931 13.5413 2.92241L12.0697 1.47414C11.8632 1.26724 11.5275 1.26724 11.321 1.47414L10.6368 2.15948C10.1463 1.875 9.61704 1.65517 9.06196 1.5V0.530172C9.06196 0.232759 8.8296 0 8.5327 0H6.4673C6.1704 0 5.93804 0.232759 5.93804 0.530172V1.5C5.38296 1.64224 4.8537 1.86207 4.36317 2.14655L3.679 1.46121C3.47246 1.25431 3.13683 1.25431 2.93029 1.46121L1.4716 2.93534C1.26506 3.14224 1.26506 3.47845 1.4716 3.68534L2.14286 4.35776C1.84596 4.84914 1.62651 5.37931 1.48451 5.94828H0.52926ZM2.43976 6.56897C2.56885 5.84483 2.85284 5.18534 3.25301 4.59052C3.39501 4.38362 3.36919 4.09914 3.18847 3.9181L2.59466 3.31034L3.30465 2.59914L3.91136 3.2069C4.09208 3.38793 4.37608 3.41379 4.58262 3.27155C5.17642 2.85776 5.84768 2.58621 6.55766 2.4569C6.80293 2.40517 6.99656 2.19828 6.99656 1.93966V1.07328H8.00344V1.93966C8.00344 2.19828 8.18417 2.4181 8.42943 2.4569C9.13941 2.58621 9.79776 2.87069 10.3916 3.27155C10.5981 3.41379 10.8821 3.38793 11.0628 3.2069L11.6824 2.58621L12.3924 3.29741L11.7728 3.9181C11.5921 4.09914 11.5663 4.38362 11.7083 4.59052C12.1084 5.18534 12.3795 5.84483 12.5215 6.55603C12.5731 6.80172 12.7926 6.99569 13.0379 6.99569H13.9157V8.00431H13.0379C12.7797 8.00431 12.5602 8.18534 12.5215 8.43103C12.3924 9.14224 12.1213 9.80172 11.7083 10.3966C11.5663 10.6034 11.5921 10.8879 11.7728 11.069L12.3924 11.6897L11.6824 12.4009L11.0628 11.7802C10.8821 11.5991 10.5981 11.5733 10.3916 11.7155C9.79776 12.1293 9.13941 12.4009 8.42943 12.5302C8.18417 12.5819 8.00344 12.8017 8.00344 13.0474V13.9138H6.99656V13.0474C6.99656 12.7888 6.81583 12.569 6.55766 12.5302C5.83477 12.4009 5.17642 12.1293 4.58262 11.7155C4.37608 11.5733 4.09208 11.5991 3.91136 11.7802L3.30465 12.3879L2.59466 11.7155L3.20138 11.1078C3.3821 10.9267 3.40792 10.6422 3.26592 10.4353C2.85284 9.84052 2.58176 9.1681 2.43976 8.4569C2.38812 8.21121 2.18158 8.03017 1.92341 8.03017H1.07143V7.02155H1.92341C2.16867 7.00862 2.38812 6.82759 2.43976 6.56897ZM7.48709 11.2241C9.48795 11.2241 11.1145 9.59483 11.1145 7.59052C11.1145 5.58621 9.48795 3.9569 7.48709 3.9569C5.48623 3.9569 3.85972 5.58621 3.85972 7.59052C3.85972 9.59483 5.48623 11.2241 7.48709 11.2241ZM7.48709 5.01724C8.90706 5.01724 10.0559 6.1681 10.0559 7.59052C10.0559 9.01293 8.90706 10.1638 7.48709 10.1638C6.06713 10.1638 4.91824 9.01293 4.91824 7.59052C4.91824 6.1681 6.06713 5.01724 7.48709 5.01724Z" fill="#9294A3"/>
</svg>
