<svg width="22" height="22" viewBox="0 0 22 22" fill="none" xmlns="http://www.w3.org/2000/svg">
<circle cx="11" cy="11" r="10" fill="#13293F" stroke="white" stroke-width="2"/>
<path fill-rule="evenodd" clip-rule="evenodd" d="M6.38464 10.6923C6.38464 9.58769 7.28007 8.69226 8.38464 8.69226H13.6154C14.72 8.69226 15.6154 9.58769 15.6154 10.6923V14.3846C15.6154 15.4891 14.72 16.3846 13.6154 16.3846H8.38464C7.28007 16.3846 6.38464 15.4891 6.38464 14.3846V10.6923Z" fill="#E9C83B"/>
<path fill-rule="evenodd" clip-rule="evenodd" d="M11 4.0769C12.6994 4.0769 14.0769 5.45449 14.0769 7.15383V8.69229H12.5385V7.15383C12.5385 6.30416 11.8497 5.61537 11 5.61537C10.1503 5.61537 9.46156 6.30416 9.46156 7.15383V8.69229H7.9231V7.15383C7.9231 5.45449 9.30068 4.0769 11 4.0769Z" fill="#DFA039"/>
<rect x="10.2307" y="11" width="1.53846" height="3.07692" rx="0.769231" fill="#12293F"/>
</svg>
