<svg width="86" height="22" viewBox="0 0 86 22" fill="none" xmlns="http://www.w3.org/2000/svg">
<path fill-rule="evenodd" clip-rule="evenodd" d="M0.287872 0.474121H2.77072V11.8899H0.287872V0.474121Z" fill="white"/>
<path fill-rule="evenodd" clip-rule="evenodd" d="M4.89374 0.474121H7.73642L10.1833 8.68035V0.474121H12.3783V11.8899H9.4996L7.08872 3.68367V11.8899H4.89374V0.474121Z" fill="white"/>
<path fill-rule="evenodd" clip-rule="evenodd" d="M13.9615 0.474121H16.4803L17.8837 9.37333L19.287 0.474121H21.6979L19.323 11.8899H16.3364L13.9615 0.474121Z" fill="white"/>
<path fill-rule="evenodd" clip-rule="evenodd" d="M23.2812 0.474121H29.4703V2.29773H25.728V5.14256H29.1464V6.96616H25.728V10.0663H29.4703V11.8899H23.2812V0.474121Z" fill="white"/>
<path fill-rule="evenodd" clip-rule="evenodd" d="M31.1615 0.474121H34.0402L36.451 8.68035V0.474121H38.646V11.8899H35.8033L33.3565 3.68367V11.8899H31.1615V0.474121Z" fill="white"/>
<path fill-rule="evenodd" clip-rule="evenodd" d="M42.5682 2.29773H40.2653V0.474121H47.354V2.29773H45.051V11.8899H42.5682V2.29773Z" fill="white"/>
<path fill-rule="evenodd" clip-rule="evenodd" d="M50.6285 5.79902V6.52846C50.6285 8.93562 50.6285 10.3216 51.9239 10.3216C53.2193 10.3216 53.2193 8.89915 53.2193 6.52846V5.79902C53.2193 3.39185 53.2193 2.00591 51.9239 2.00591C50.6644 2.00591 50.6285 3.42833 50.6285 5.79902ZM48.0017 6.96612V5.36135C48.0017 1.8965 48.9013 0.255249 51.9239 0.255249C54.9464 0.255249 55.846 1.8965 55.846 5.36135V6.96612C55.846 10.431 54.9464 12.0722 51.9239 12.0722C48.9372 12.0722 48.0017 10.431 48.0017 6.96612Z" fill="white"/>
<path fill-rule="evenodd" clip-rule="evenodd" d="M60.6318 5.47081C61.9992 5.47081 62.287 5.17903 62.287 3.82956C62.287 2.48009 61.9992 2.15184 60.6318 2.15184H59.9121V5.47081H60.6318ZM60.9557 6.96616C60.8477 6.96616 60.7038 6.96616 60.5958 6.96616H59.9121V11.8899H57.4293V0.474121H60.6318C63.5824 0.474121 64.8418 1.13062 64.8418 3.61073C64.8418 5.17903 64.2301 5.98142 63.1506 6.41908L64.9858 11.8899H62.431L60.9557 6.96616Z" fill="white"/>
<path fill-rule="evenodd" clip-rule="evenodd" d="M66.569 7.40383V0.474121H69.0519V7.36736C69.0519 9.37333 69.0159 10.3216 70.2393 10.3216C71.4628 10.3216 71.4268 9.37333 71.4268 7.36736V0.474121H73.9096V7.25794C73.9096 11.0146 73.3699 12.0723 70.2393 12.0723C67.1088 12.0723 66.569 11.0146 66.569 7.40383Z" fill="white"/>
<path fill-rule="evenodd" clip-rule="evenodd" d="M75.9247 0.474121H79.3791L80.8544 9.04508L82.3657 0.474121H85.7841V11.8899H83.5891V2.91776H83.5531L83.4452 3.82956L81.8259 11.8899H79.8828L78.2996 3.82956L78.1916 2.91776H78.1556V11.8899H75.9247V0.474121Z" fill="white"/>
<mask id="mask0" mask-type="alpha" maskUnits="userSpaceOnUse" x="0" y="16" width="86" height="5">
<path fill-rule="evenodd" clip-rule="evenodd" d="M0.287872 20.6797H2.77072V16.5948H0.287872V20.6797ZM4.89373 20.6797H7.08871V16.5948H4.89373V20.6797ZM10.1833 20.6797H12.3782V16.5948H10.1833V20.6797ZM23.2812 20.6797H25.764V16.5948H23.2812V20.6797ZM31.1615 20.6797H33.3565V16.5948H31.1615V20.6797ZM36.4511 20.6797H38.646V16.5948H36.4511V20.6797ZM42.5682 20.6797H45.0511V16.5948H42.5682V20.6797ZM57.4293 20.6797H59.9121V16.5948H57.4293V20.6797ZM66.569 20.6797H69.0519V16.5948H66.569V20.6797ZM71.4268 20.6797H73.9096V16.5948H71.4268V20.6797ZM75.9247 20.6797H78.1197V16.5948H75.9247V20.6797ZM85.7841 16.5948H83.5891V20.7162H85.7841V16.5948Z" fill="white"/>
</mask>
<g mask="url(#mask0)">
<rect x="0.287872" y="16.5948" width="85.4962" height="4.12135" fill="url(#paint0_linear)"/>
</g>
<defs>
<linearGradient id="paint0_linear" x1="0.296755" y1="20.6941" x2="85.7772" y2="20.6941" gradientUnits="userSpaceOnUse">
<stop stop-color="#81356F"/>
<stop offset="1" stop-color="#4C5CA6"/>
</linearGradient>
</defs>
</svg>
