<svg width="12" height="12" viewBox="0 0 12 12" fill="none" xmlns="http://www.w3.org/2000/svg">
<path fill-rule="evenodd" clip-rule="evenodd" d="M4.66954 9.33909C5.80846 9.33909 6.84383 8.93529 7.65142 8.25194L11.2752 11.8758C11.3581 11.9586 11.4616 12 11.5755 12C11.6894 12 11.7929 11.9586 11.8758 11.8758C12.0414 11.7101 12.0414 11.4409 11.8758 11.2752L8.25194 7.65142C8.92494 6.84383 9.33909 5.7981 9.33909 4.66954C9.33909 2.09146 7.24763 0 4.66954 0C2.10181 0 0 2.10181 0 4.66954C0 7.24763 2.10181 9.33909 4.66954 9.33909ZM4.66954 0.849008C6.78171 0.849008 8.49008 2.56773 8.49008 4.66954C8.49008 6.78171 6.78171 8.49008 4.66954 8.49008C2.55738 8.49008 0.849008 6.77135 0.849008 4.66954C0.849008 2.56773 2.56773 0.849008 4.66954 0.849008Z" fill="#9B9B9B"/>
</svg>
